<mxfile host="app.diagrams.net" modified="2023-11-15T14:24:00.833Z" agent="Mozilla/5.0 (X11; Ubuntu; Linux x86_64; rv:109.0) Gecko/20100101 Firefox/113.0" version="22.1.1" etag="J5y6kHTkJxxwt0mBYXlf" type="github">
  <diagram name="Page-1" id="bK7SNeMSKfdMd8kIKpPh">
    <mxGraphModel>
      <root>
        <mxCell id="0" />
        <mxCell id="1" parent="0" />
      </root>
    </mxGraphModel>
  </diagram>
</mxfile>
